<svg viewBox="0 0 15 15" xmlns="http://www.w3.org/2000/svg">
<path d="M13.85 13.7071C14.2405 13.3166 14.2405 12.6834 13.85 12.2929L2.70744 1.15032C2.31692 0.759791 1.68376 0.759792 1.29323 1.15032C0.902707 1.54084 0.902707 2.174 1.29323 2.56453L12.4358 13.7071C12.8263 14.0976 13.4595 14.0976 13.85 13.7071Z"/>
<path d="M1.40486 13.7071C1.01434 13.3166 1.01434 12.6834 1.40486 12.2929L12.5474 1.15032C12.938 0.759792 13.5711 0.759792 13.9617 1.15032C14.3522 1.54084 14.3522 2.17401 13.9617 2.56453L2.81907 13.7071C2.42855 14.0976 1.79538 14.0976 1.40486 13.7071Z"/>
</svg>
