<svg width="29" height="29" viewBox="0 0 29 29" fill="none" xmlns="http://www.w3.org/2000/svg">
<path d="M1.92452 0H11.5912V9.6722H9.65785V2.88812C6.97955 4.00955 4.77178 6.02404 3.40953 8.58944C2.04727 11.1548 1.61453 14.113 2.1848 16.9614C2.75507 19.8098 4.29319 22.3729 6.53792 24.2154C8.78264 26.0578 11.5956 27.066 14.4989 27.0686C17.5818 27.0716 20.5583 25.9406 22.8621 23.8908C25.1658 21.841 26.6361 19.0153 26.9933 15.9514C27.3504 12.8875 26.5694 9.79908 24.799 7.27379C23.0285 4.74849 20.392 2.96249 17.3912 2.25556V0.274691C20.7151 0.951423 23.6967 2.77273 25.8173 5.42174C27.9378 8.07074 29.0631 11.3798 28.9973 14.7731C28.9315 18.1665 27.6788 21.4293 25.4571 23.994C23.2355 26.5587 20.1855 28.263 16.8378 28.8102C13.4902 29.3574 10.0567 28.7129 7.13484 26.989C4.21297 25.265 1.98761 22.5707 0.845955 19.3747C-0.295705 16.1788 -0.281408 12.6835 0.886356 9.49694C2.05412 6.31043 4.30144 3.6344 7.23732 1.93444H1.92452V0Z" fill="#0042EC"/>
</svg>
