<svg width="34" height="39" viewBox="0 0 34 39" fill="none" xmlns="http://www.w3.org/2000/svg">
<path d="M17 9.46041e-08C18.1527 -0.000213438 19.27 0.361053 20.1629 1.02266C21.0558 1.68426 21.6695 2.60557 21.9 3.63065H28C29.5913 3.63065 31.1174 4.20442 32.2426 5.22574C33.3679 6.24706 34 7.63227 34 9.07663V32.6759C34 34.1202 33.3679 35.5054 32.2426 36.5268C31.1174 37.5481 29.5913 38.1218 28 38.1218H6C4.4087 38.1218 2.88258 37.5481 1.75736 36.5268C0.632141 35.5054 0 34.1202 0 32.6759V9.07663C0 7.63227 0.632141 6.24706 1.75736 5.22574C2.88258 4.20442 4.4087 3.63065 6 3.63065H12.1C12.3305 2.60557 12.9442 1.68426 13.8371 1.02266C14.73 0.361053 15.8473 -0.000213438 17 9.46041e-08ZM19.83 3.63065C19.6239 3.09877 19.2409 2.63809 18.734 2.3122C18.2271 1.9863 17.6212 1.81128 17 1.81128C16.3788 1.81128 15.7729 1.9863 15.266 2.3122C14.7591 2.63809 14.3761 3.09877 14.17 3.63065H19.83ZM6 5.44598C4.93913 5.44598 3.92172 5.82849 3.17157 6.50937C2.42143 7.19025 2 8.11372 2 9.07663V32.6759C2 33.6388 2.42143 34.5622 3.17157 35.2431C3.92172 35.924 4.93913 36.3065 6 36.3065H28C29.0609 36.3065 30.0783 35.924 30.8284 35.2431C31.5786 34.5622 32 33.6388 32 32.6759V9.07663C32 8.11372 31.5786 7.19025 30.8284 6.50937C30.0783 5.82849 29.0609 5.44598 28 5.44598H26V10.892H8V5.44598H6ZM10 5.44598V9.07663H24V5.44598H10Z" fill="#0042EC"/>
</svg>
