<svg width="36" height="30" viewBox="0 0 36 30" fill="none" xmlns="http://www.w3.org/2000/svg">
<path d="M1.5 29.1875V20.6029H0V18.886H1.5V13.7353H0V12.0184H1.5V0H12C13.5913 0 15.1174 0.723553 16.2426 2.01149C17.3679 3.29942 18 5.04623 18 6.86765C18 8.68906 17.3679 10.4359 16.2426 11.7238C15.1174 13.0117 13.5913 13.7353 12 13.7353H3V18.886H12V20.6029H3V29.1875H1.5ZM3 12.0184H12C13.1935 12.0184 14.3381 11.4757 15.182 10.5098C16.0259 9.54382 16.5 8.23371 16.5 6.86765C16.5 5.50159 16.0259 4.19148 15.182 3.22553C14.3381 2.25958 13.1935 1.71691 12 1.71691H3V12.0184Z" fill="#0042EC"/>
<path d="M30 6.73535V20.4873L35.25 14.5936L36 15.339L29.5 22.636L23 15.339L23.75 14.5936L29 20.4873V6.73535H30Z" fill="#0042EC"/>
</svg>
