<svg width="11" height="15" viewBox="0 0 11 15" fill="none" xmlns="http://www.w3.org/2000/svg">
<path d="M7.33333 6.31585C6.74986 6.31585 6.19028 6.06632 5.7777 5.62216C5.36512 5.17799 5.13333 4.57557 5.13333 3.94743V0.789535H2.2C1.81102 0.789535 1.43796 0.955888 1.16291 1.252C0.887857 1.54811 0.733333 1.94972 0.733333 2.36848V12.6316C0.733333 13.0504 0.887857 13.452 1.16291 13.7481C1.43796 14.0442 1.81102 14.2106 2.2 14.2106H8.8C9.18898 14.2106 9.56204 14.0442 9.83709 13.7481C10.1121 13.452 10.2667 13.0504 10.2667 12.6316V6.31585H7.33333ZM5.86667 3.94743C5.86667 4.36619 6.02119 4.7678 6.29624 5.06391C6.5713 5.36002 6.94435 5.52638 7.33333 5.52638H9.96307L5.86667 1.11638V3.94743ZM2.2 6.10352e-05H5.86667L11 5.52638V12.6316C11 13.2598 10.7682 13.8622 10.3556 14.3064C9.94306 14.7505 9.38348 15.0001 8.8 15.0001H2.2C1.61652 15.0001 1.05695 14.7505 0.644365 14.3064C0.231785 13.8622 0 13.2598 0 12.6316V2.36848C0 1.74034 0.231785 1.13792 0.644365 0.693756C1.05695 0.24959 1.61652 6.10352e-05 2.2 6.10352e-05Z" fill="white"/>
</svg>
