<?xml version="1.0" encoding="utf-8"?><svg width="16" height="21" fill="none" xmlns="http://www.w3.org/2000/svg" viewBox="0 0 16 21"><path d="M14.08 6a1 1 0 00-1.08.92l-.35 4.55a2.67 2.67 0 01-1.2-.77.997.997 0 00-1.5 0 2.65 2.65 0 01-3.9 0 .998.998 0 00-1.5 0c-.324.36-.738.625-1.2.77L3 6.92a1 1 0 00-1.457-.815A1 1 0 001 7.08l.86 11.15a3 3 0 003 2.77h6.3a3 3 0 003-2.77L15 7.08A.999.999 0 0014.08 6zm-1.94 12.08a1 1 0 01-1 .92H4.85a1 1 0 01-1-.92L3.5 13.5a4.772 4.772 0 001.8-.79 4.66 4.66 0 005.4 0 4.773 4.773 0 001.8.79l-.36 4.58zM8 9a3.26 3.26 0 003.25-3.25c0-2.75-2.58-4.51-2.69-4.58a1 1 0 00-1.12 0C7.33 1.25 4.75 3 4.75 5.75A3.26 3.26 0 008 9zm0-5.7a3.61 3.61 0 011.25 2.45 1.25 1.25 0 01-2.5 0A3.66 3.66 0 018 3.3z" fill="#0075FF"/></svg>