<?xml version="1.0" encoding="utf-8"?><svg width="18" height="26" fill="none" xmlns="http://www.w3.org/2000/svg" viewBox="0 0 18 26"><path d="M9.25 1a8.15 8.15 0 014.16 1.125 8.182 8.182 0 012.965 2.965A8.15 8.15 0 0117.5 9.25c0 1.133-.215 2.184-.645 3.152a8.604 8.604 0 01-1.84 2.637 7.014 7.014 0 00-1.5 2.145A6.356 6.356 0 0013 19.75v3a2.26 2.26 0 01-.656 1.594A2.26 2.26 0 0110.75 25h-3a2.258 2.258 0 01-1.594-.656A2.259 2.259 0 015.5 22.75v-3c0-.922-.176-1.777-.527-2.566a6.842 6.842 0 00-1.489-2.145 8.604 8.604 0 01-1.84-2.637C1.215 11.434 1 10.382 1 9.25a8.15 8.15 0 011.125-4.16 8.18 8.18 0 011.29-1.676c.5-.5 1.054-.93 1.663-1.289a8.37 8.37 0 011.98-.832A8.15 8.15 0 019.25 1zm1.5 22.5a.72.72 0 00.527-.223.72.72 0 00.223-.527V20.5H7v2.25a.72.72 0 00.223.527.72.72 0 00.527.223h3zm.785-4.5c.102-1.008.36-1.922.774-2.742a9.095 9.095 0 011.675-2.297 7.22 7.22 0 001.489-2.145c.351-.78.527-1.636.527-2.566 0-.93-.18-1.805-.54-2.625a6.77 6.77 0 00-1.44-2.145 6.771 6.771 0 00-2.145-1.44A6.47 6.47 0 009.25 2.5c-.93 0-1.805.18-2.625.54a6.772 6.772 0 00-3.598 3.585A6.593 6.593 0 002.5 9.25c0 .93.172 1.785.516 2.566a7.409 7.409 0 001.5 2.145 9.096 9.096 0 011.675 2.297c.414.82.672 1.734.774 2.742h4.57z" fill="#0075FF"/><path d="M13.41 2.125l-.254.43.003.002.251-.432zm2.965 2.965l-.432.251.001.003.431-.254zm-1.36 9.95l.352.355-.351-.356zm-1.5 2.144l-.456-.204-.002.004.459.2zm-8.542 0l-.459.2.002.003.457-.203zm-1.489-2.145l-.351.355.351-.355zM2.125 5.09l.43.255.002-.003-.432-.251zm2.953-2.964l-.251-.432-.003.001.254.431zM11.5 20.5h.5V20h-.5v.5zm-4.5 0V20h-.5v.5H7zm4.535-1.5v.5h.452l.046-.45-.498-.05zm2.45-5.04l.355.352-.356-.351zm1.488-2.144l-.456-.205-.001.002.457.203zm-.012-5.191l-.46.197.002.004.458-.201zm-3.586-3.586l-.2.458.003.002.197-.46zm-5.25 0l.197.46.004-.002-.201-.458zM3.027 6.625l-.458-.2-.001.003.46.197zm-.011 5.191l-.458.202.002.005.456-.207zm1.5 2.145l-.356.351.356-.351zM6.965 19l-.498.05.046.45h.452V19zM9.25 1.5c.714 0 1.4.092 2.058.275l.267-.964A8.65 8.65 0 009.25.5v1zm2.058.275a7.653 7.653 0 011.848.78l.508-.86A8.65 8.65 0 0011.575.81l-.267.964zm1.85.782a7.68 7.68 0 011.574 1.21l.708-.706a8.682 8.682 0 00-1.778-1.368l-.503.864zm1.574 1.21c.47.47.873.994 1.21 1.574l.865-.503a8.678 8.678 0 00-1.367-1.777l-.708.707zm1.212 1.577a7.65 7.65 0 01.781 1.848l.964-.267a8.652 8.652 0 00-.883-2.09l-.862.509zm.781 1.848c.183.658.275 1.344.275 2.058h1c0-.801-.103-1.577-.311-2.325l-.964.267zM17 9.25c0 1.068-.202 2.049-.602 2.95l.915.405c.46-1.037.687-2.157.687-3.355h-1zm-.602 2.95a8.105 8.105 0 01-1.734 2.484l.703.71a9.104 9.104 0 001.945-2.789l-.914-.405zm-1.734 2.483a7.514 7.514 0 00-1.605 2.297l.913.407a6.515 6.515 0 011.395-1.992l-.703-.712zm-1.607 2.3a6.855 6.855 0 00-.557 2.767h1c0-.858.16-1.645.474-2.367l-.917-.4zM12.5 19.75v3h1v-3h-1zm0 3c0 .248-.046.474-.135.682l.919.394c.145-.339.216-.7.216-1.076h-1zm-.135.682a1.757 1.757 0 01-.375.558l.707.707c.25-.25.446-.541.587-.871l-.92-.394zm-.375.558a1.757 1.757 0 01-.558.375l.394.919c.33-.142.622-.337.871-.587l-.707-.707zm-.558.375c-.208.089-.434.135-.682.135v1c.377 0 .737-.071 1.076-.216l-.394-.92zm-.682.135h-3v1h3v-1zm-3 0c-.248 0-.474-.046-.682-.135l-.394.919c.339.145.7.216 1.076.216v-1zm-.682-.135a1.758 1.758 0 01-.558-.375l-.707.707c.25.25.541.445.871.587l.394-.92zm-.558-.375a1.757 1.757 0 01-.375-.558l-.919.394c.142.33.337.622.587.871l.707-.707zm-.375-.558A1.707 1.707 0 016 22.75H5c0 .377.071.737.216 1.076l.92-.394zM6 22.75v-3H5v3h1zm0-3c0-.987-.189-1.913-.57-2.77l-.914.407c.321.72.484 1.506.484 2.363h1zm-.569-2.766a7.341 7.341 0 00-1.595-2.3l-.703.71a6.341 6.341 0 011.381 1.99l.917-.4zm-1.595-2.3A8.105 8.105 0 012.102 12.2l-.915.405a9.105 9.105 0 001.946 2.79l.703-.711zM2.102 12.2c-.4-.901-.602-1.882-.602-2.95h-1c0 1.198.228 2.318.687 3.355l.915-.405zM1.5 9.25c0-.714.092-1.4.275-2.058L.81 6.925A8.65 8.65 0 00.5 9.25h1zm.275-2.058a7.651 7.651 0 01.78-1.848l-.86-.508A8.65 8.65 0 00.81 6.925l.964.267zm.782-1.85a7.68 7.68 0 011.21-1.574l-.706-.707a8.68 8.68 0 00-1.368 1.777l.864.503zm1.21-1.574c.47-.47.992-.874 1.565-1.212l-.508-.862a8.823 8.823 0 00-1.763 1.367l.707.707zm1.563-1.21a7.87 7.87 0 011.862-.783L6.925.81a8.87 8.87 0 00-2.098.882l.503.864zm1.862-.783A7.65 7.65 0 019.25 1.5v-1a8.65 8.65 0 00-2.325.311l.267.964zM10.75 24c.34 0 .642-.13.88-.37l-.706-.706a.223.223 0 01-.174.076v1zm.88-.37c.24-.238.37-.54.37-.88h-1a.223.223 0 01-.076.174l.707.707zm.37-.88V20.5h-1v2.25h1zM11.5 20H7v1h4.5v-1zm-5 .5v2.25h1V20.5h-1zm0 2.25c0 .34.13.642.37.88l.706-.706a.223.223 0 01-.076-.174h-1zm.37.88c.238.24.54.37.88.37v-1a.223.223 0 01-.174-.076l-.707.707zm.88.37h3v-1h-3v1zm4.283-4.95c.096-.953.338-1.807.722-2.567l-.893-.45c-.444.88-.717 1.854-.824 2.917l.995.1zm.722-2.567a8.593 8.593 0 011.585-2.17l-.711-.704a9.596 9.596 0 00-1.767 2.423l.893.451zm1.585-2.17a7.718 7.718 0 001.59-2.293l-.914-.407a6.72 6.72 0 01-1.387 1.997l.711.702zm1.589-2.291c.383-.851.571-1.778.571-2.772h-1c0 .865-.163 1.65-.483 2.361l.912.41zM16.5 9.25c0-.996-.193-1.94-.581-2.826l-.916.402A5.97 5.97 0 0115.5 9.25h1zm-.58-2.822a7.273 7.273 0 00-1.547-2.301l-.707.707a6.272 6.272 0 011.335 1.988l.92-.394zm-1.547-2.301a7.273 7.273 0 00-2.301-1.548l-.394.92a6.272 6.272 0 011.988 1.335l.707-.707zM12.076 2.58A6.97 6.97 0 009.25 2v1c.863 0 1.67.166 2.424.497l.402-.916zM9.25 2a6.97 6.97 0 00-2.826.581l.402.916A5.97 5.97 0 019.25 3V2zm-2.822.58a7.272 7.272 0 00-2.301 1.547l.707.707a6.273 6.273 0 011.988-1.335l-.394-.92zM4.127 4.126a7.436 7.436 0 00-1.558 2.297l.916.402a6.437 6.437 0 011.349-1.992l-.707-.707zm-1.56 2.301A7.093 7.093 0 002 9.25h1c0-.865.163-1.673.487-2.428l-.92-.394zM2 9.25c0 .993.184 1.918.558 2.768l.915-.403C3.16 10.903 3 10.117 3 9.25H2zm.56 2.773a7.91 7.91 0 001.6 2.29l.711-.704a6.91 6.91 0 01-1.4-2l-.91.414zm1.6 2.29c.67.677 1.196 1.4 1.585 2.17l.893-.45a9.595 9.595 0 00-1.767-2.424l-.71.704zm1.585 2.17c.384.76.626 1.614.722 2.567l.995-.1c-.107-1.063-.38-2.037-.824-2.918l-.893.451zm1.22 3.017h4.57v-1h-4.57v1z" fill="#0075FF"/></svg>