<?xml version="1.0" encoding="utf-8"?><svg width="23" height="21" fill="none" xmlns="http://www.w3.org/2000/svg" viewBox="0 0 23 21"><path d="M21.403 6.395c-.355-.195-.845-.19-1.208-.393-.706-.4-.889-.987-.919-1.856-1.544-1.66-3.853-3.132-7.067-3.085-.872.013-1.692-.026-2.369.326-.194.266-.003.387.216.45-.217.103-.519.11-.47.522 2.04-.287 5.607.468 5.338 2.225-.06.39-.552.807-.885 1.172-.947 1.036-1.949 1.837-2.82 2.75l.252.252c.556-.39 1.084-.589 1.578-.589.53 0 .84.223.957.325.43-.463.874-.933 1.38-1.39.365-.333.784-.825 1.173-.883l.711-.075c.867.034 1.453.217 1.853.922.202.362.197.855.391 1.21.131.245.703.916.987.923.22.006.452-.15.675-.367l.774-.776c.218-.22.375-.45.37-.672-.005-.285-.676-.86-.918-.99v-.001zM9.765 10.514l-.555-.555c-2.355 1.981-4.89 4.303-7.148 6.44-.355.334-1.09.767-1.13 1.156-.062.585.713 1.099 1.13 1.5.416.4.907 1.201 1.495 1.132.382-.032.82-.772 1.158-1.126a192.752 192.752 0 005.162-5.633c-.234-.277-.374-.446-.374-.446-.103-.144-.67-1.027.263-2.467l-.001-.001zm5.715.217c-.274-.238-1.1.108-1.333-.091-.232-.199.128-.944-.045-1.09l-.577-.485s-.648-.623-2.11.696L5.58 3.926c-.296-.296-.178-1.367-.178-1.367L2.638.984l-.67.672L3.541 4.42s1.071-.119 1.368.178l5.844 5.844c-1.162 1.373-.672 2.064-.672 2.064s.179.216.485.578c.147.172.89-.188 1.091.045.198.235-.147 1.057.09 1.333 2 2.298 5.194 5.802 6.094 5.802.669 0 1.515-.543 2.21-1.23.695-.687 1.23-1.54 1.23-2.21 0-.9-3.505-4.093-5.803-6.093h.001z" fill="#0075FF"/></svg>