<svg viewBox="0 0 30 32" xmlns="http://www.w3.org/2000/svg">
<path d="M16.25 25.3356V20.1183H20L15 13.5967L10 20.1183H13.75V25.3356H16.25Z" fill="white"/>
<path d="M8.75 25.3357H11.25V22.727H8.75C6.6825 22.727 5 20.9714 5 18.8141C5 16.9828 6.49875 15.2194 8.34125 14.8815L9.0675 14.7485L9.3075 14.0207C10.1863 11.3455 12.3688 9.68384 15 9.68384C18.4463 9.68384 21.25 12.6094 21.25 16.2054V17.5098H22.5C23.8788 17.5098 25 18.6797 25 20.1184C25 21.5571 23.8788 22.727 22.5 22.727H18.75V25.3357H22.5C25.2575 25.3357 27.5 22.9957 27.5 20.1184C27.4981 18.9492 27.1208 17.8144 26.4284 16.8952C25.7359 15.976 24.7683 15.3254 23.68 15.0472C23.1338 10.5577 19.45 7.0752 15 7.0752C11.555 7.0752 8.5625 9.17645 7.19625 12.4881C4.51125 13.3255 2.5 15.9707 2.5 18.8141C2.5 22.4101 5.30375 25.3357 8.75 25.3357Z" fill="white"/>
</svg>
