<?xml version="1.0" encoding="utf-8"?><svg width="18" height="24" fill="none" xmlns="http://www.w3.org/2000/svg" viewBox="0 0 18 24"><path d="M3.59.66c2.34-1.81 4.88.4 5.45 3.84.43 0 .85.12 1.23.34.52-.6.98-1.42.8-2.34-.42-2.15 1.99-3.89 4.28-.92 1.81 2.34-.4 4.88-3.85 5.45 0 .43-.11.86-.34 1.24.6.51 1.42.97 2.34.79 2.13-.42 3.88 1.98.91 4.28-2.34 1.81-4.88-.4-5.45-3.84-.43 0-.85-.13-1.22-.35-.52.6-.99 1.43-.81 2.35.42 2.14-1.99 3.89-4.28.92-1.82-2.35.4-4.89 3.85-5.45 0-.43.13-.85.35-1.23-.6-.51-1.42-.98-2.35-.8C2.37 5.36.62 2.96 3.59.66zM2 16h2a2 2 0 012 2v6H4v-2H2v2H0v-6a2 2 0 012-2zm0 2v2h2v-2H2zm7.93-2H12l-2.93 8H7l2.93-8zM15 16h3v2h-3v4h3v2h-3a2 2 0 01-2-2v-4a2 2 0 012-2z" fill="#0075FF"/></svg>